<?xml version="1.0" encoding="UTF-8"?>
<svg id="Layer_1" data-name="Layer 1" xmlns="http://www.w3.org/2000/svg" viewBox="0 0 512 234.49">
  <defs>
    <style>
      .cls-1 {
        fill: #0f1237;
        stroke-width: 0px;
      }
    </style>
  </defs>
  <path class="cls-1" d="M62.36,59.98c.05-6.97-.12-10.88.2-16.05.24-3.88.64-7.93,1.27-11.77.5-3.04,1.52-6.08,2.97-8.85,2.22-4.24,4.97-8.23,8.62-11.6,3.06-2.81,6.51-5.12,10.42-6.89,5.97-2.7,12.3-4.02,18.92-4.53,7.2-.56,14.36-.31,21.44.76,8.01,1.21,15.59,3.61,22.17,8.12,4.73,3.24,8.52,7.25,11.55,11.89,2.82,4.32,4.57,8.99,5.47,13.89.79,4.31.83,8.69.45,13.07-.29,3.35-.93,6.63-1.78,9.88-.94,3.61-2.23,7.14-3.69,10.61-2.35,5.59-5.45,10.84-8.72,16-2.95,4.66-6.04,9.08-9.15,13.65-2.98,4.38-6.07,8.29-9.15,12.94h-48.6c.36,0,1.39-2.18,2.07-3.28,1.46-2.39,3.08-4.63,4.66-6.96.3-.44.37-.85.44-1.33.15-1.04.48-1.9,1.69-2.44,1.02-.46,1.37-1.57,1.93-2.43,3.81-5.88,7.66-11.73,11.3-17.7,3.15-5.16,6.4-10.28,9.11-15.66,1.77-3.52,3.47-7.07,4.85-10.73,1.82-4.82,2.98-9.76,2.37-14.92-.22-1.82-.52-3.6-1.38-5.31-1.97-3.91-5.15-5-8.94-4.87-4.68.16-7.41,2.42-8.59,6.59-1.02,3.59-1.26,7.23-1.29,10.91-.03,4.86,0,10.08-.01,14.94,0,.53.1-.26-.15,2.06h-40.45Z"/>
  <path class="cls-1" d="M248.78,111.11h-44.57c-.3,0-.17-1.09-.17-1.67,0-11.44,0-22.81,0-34.25,0-4.26-.09-8.49-.27-12.75-.09-2.06-.36-4.07-.83-6.07-.41-1.74-1.54-3.11-3.08-4.2-2.27-1.61-4.94-2.25-7.74-2.57-5.66-.65-11.7-.67-17.39-.67-.7,0,.01.09-2.54-.16v-19.11c5.11-.89,7.35-1.59,10.77-2.61,4.77-1.43,9.62-3.05,14.11-5.12,5.34-2.47,10.44-5.37,15.03-8.87,3.45-2.63,6.66-5.51,9.45-8.72.73-.83,1.5-1.2,2.71-1.19,7.77.05,15.31.02,23.08.03.52,0,1.45.05,1.45.08v107.86Z"/>
  <path class="cls-1" d="M430.86,170.6c.07.53.7,1.11-.21,1.54-.15.07-.2.38-.22.58-.21,3.2-1.93,5.96-3.05,8.9-.27.71-.84.98-1.44,1.13-.87,3.78-2.86,6.9-5.54,9.7-1.21,1.26-2.56,2.38-3.91,3.51-3.01,2.52-8,3.75-12.04,3.05-2.87-.5-5.53-1.43-8.08-2.76-2.68-1.4-4.26-3.55-5.39-6.01-1.08-2.34-1.63-4.84-1.93-7.36-.57-4.75-.3-9.47.26-14.21.65-5.54,1.84-10.98,3.16-16.39,1.05-4.3,2.27-8.57,3.87-12.75.99-2.59,1.85-5.22,3.12-7.71,2.28-4.45,5.61-8.05,10.4-10.46.75-.38,1.39-.42,2.18-.18,2.58.78,5.18,1.51,7.77,2.24.51.14,1.03.28,1.55.31,1.04.05,1.98.36,2.86.81,1.45.76,3,1.19,4.68,1.44,1.11-1.4,1.21-3.05,1.57-4.61,1.39-6.02,2.11-12.14,3.06-18.22.62-4,1.28-8.01,1.7-12.03.59-5.69,1.68-11.34,1.71-17.08,0-.3.08-.62-.32-1.03-.34,1-.63,1.87-.93,2.75-.34-.69-.19-1.3-.07-1.93.23-1.27.64-2.51.59-3.83-.05-1.43.44-1.62,1.89-.85.21-.5-.05-1.08.35-1.62.96-.37,2.66.82,2.87-1.11.73.14,1.24.23,1.77.33.31.45.61.91.97,1.43,1.18-.59,2.66,0,3.54-1.09.21.07.37.08.42.15.68.95,1.24,1.97,2.48,2.49.37.15.7.66.78,1.05.23,1.14.66,2.15,1.46,3.05.28.31.26.74-.06,1.05-.66.62-.53,1.4-.56,2.14-.27,5.5-.61,10.99-1.26,16.46-.46,3.86-.91,7.72-1.44,11.58-.13.97.1,1.91.01,2.89-.31,3.43-.91,6.83-.89,10.31.02,3.55-.56,7.1-.84,10.65-.31,3.82-.65,7.64-.86,11.46-.48,9.05-.94,18.11-1.31,27.16-.18,4.53-.19,9.07-.19,13.6,0,8.15,0,16.3.1,24.46.05,4.59.4,9.16,1.12,13.71.31,1.98.2,3.98.59,5.96.25,1.28.42,2.55.98,3.76.49,1.08.14,1.94-.63,2.95-1.07,1.42-2.76,1.7-4.18,2.43-.55.28-1.46-.2-2.16-.49-.54-.22-1.04-.51-1.59-.72-2.41-.91-3.53-2.73-4.2-4.87-.08-.26-.13-.52-.2-.79-.38-1.46-.68-2.89-.64-4.44.05-1.92-.46-3.85-.65-5.78-.53-5.32-1.24-10.62-1.37-15.97-.07-2.96-.36-5.92-.32-8.9.02-1.46.26-2.91.3-4.36.02-.71.74-.93.93-1.62-.61-.65-.79-1.47-.9-2.4-.12-.94,1.07-1.01.99-1.81-.07-.71-1.02-.91-.92-1.79.2-1.82.12-3.66.18-5.5.13-4.09.28-8.18.19-12.42-.48.3-.43.69-.47.99-.27,2.06-.85,4.09-.6,6.19.06.47-.18.71-.71.66-.04-.14-.11-.32-.3-.2-.16.1-.07.27.02.4ZM413.48,180.26c.85.02,1.1-.45,1.41-.93,1.8-2.74,3.07-5.65,3.98-8.75,1.17-4,2.37-7.99,3.5-12,1.42-5.06,2.63-10.16,3.75-15.28.49-2.22.91-4.45,1.32-6.68.17-.95-.06-1.79-1.05-2.38-.9-.53-1.64-1.21-2.28-2-.48-.59-1.12-1.12-1.77-1.56-1.27-.84-2.58-1.19-4.09-.32-1.43.83-2.54,1.92-3.47,3.17-1.26,1.69-2.14,3.58-3.19,5.37-2.44,4.17-3.84,8.68-5.32,13.15-1.36,4.11-2.49,8.3-3.19,12.57-.49,3.04-1.21,6.06-1.47,9.11-.36,4.25-.18,8.52.31,12.76.11.92.35,1.79,1.22,2.39.56-.05.86-.36,1.2-.67,1.36-1.23,2.19-2.78,3.16-4.25.76-1.15,1.46-2.36,3.18-2.56.5-.06.78-.5,1-.87.31-.52.52-1.08.75-1.63,1.07-2.65,1.86-5.4,3.35-7.93-.36.88-.62,1.72-.07,2.63.22.37,0,.83-.15,1.25-.47,1.28-1.11,2.48-1.82,3.66-.32.53-.62,1.04-.26,1.74ZM442.09,156.66c.36,1.29.35,2.44-.38,3.53-.33.49-.27,1.02-.24,1.56.08,1.56.27,3.16-.16,4.68-.69,2.49-.5,4.91.14,7.35.22.84.44,1.69-.36,2.43-.2.19-.24.47-.2.76.57,3.91.5,7.85.53,11.78.05,6.2.03,12.41.07,18.61.04,5.02.69,10,1.59,14.95.25,1.39.79,2.74,1.19,4.1.14-.02.29-.03.43-.05,0-.73.08-1.47-.01-2.18-.44-3.37-.71-6.76-.97-10.15-.39-5.17-.62-10.34-.61-15.51.02-6.15.34-12.29.67-18.43.29-5.33.05-10.68.39-16.01.52-8.23.34-16.49,1.2-24.71.41-3.92.58-7.85.75-11.79.17-3.72.4-7.43.59-11.14.02-.46.29-1.11-.23-1.35-.77-.34-.53-.88-.59-1.37-.16-1.3.03-2.64-.37-4.13-.19,1.65-.35,3.1-.52,4.55-.83,7.3-.96,14.64-1.83,21.93-.39,3.21-.72,6.43-1.06,9.65-.05.43,0,.91-.61,1.04-.86.19-.91.78-.82,1.39.09.64-.05,1.25-.17,1.91.68-.28.22-.99.85-1.33.64,1.68,1.38,3.21.59,5.1-.37.89-.67,2.06-.29,3.18.1-.18.15-.35.46-.34ZM441.38,132.44c.52-.98.52-1.82.31-2.67-.09-.37-.31-.73-.77-.81-.49-.09-.75.23-.96.57-.12.18-.18.4-.31.57-.78,1.05-.59,2.28-.79,3.43-.4,2.34-.79,4.68-.65,6.94.27.47.51-.18.76.17.33.63.05,1.43.45,2.12.4-.31.33-1.08,1.12-.83.23.21.08.4.04.6-.04.19-.23.41.1.55.62-1.53.74-6.14.18-7.5-.46,1.01.03,2.16-.71,3.24-.34-.38-.81-.4-1.01-1,.97-.54.83-1.54.95-2.48.15-1.17.4-2.34.6-3.51.02-.14.1-.19.29-.14.08.15.18.33.4.74ZM435.79,104.92c-1.31,5.5-1.69,11-3.15,16.44,1.31.16.26,1.49,1.11,2.04,1.91-9.28,2.78-16.81,2.05-18.48ZM428.08,151.84c1.75-4.79,2.43-9.79,3.46-14.75-.59-.08-.97-.14-1.34-.19-.35.85.03,1.63.1,2.4-.73.1-.96.55-.98,1.03-.05,1.41-.53,2.75-.66,4.14-.09.97-.55,2.02.28,2.95.26.29-.1.58-.18.87-.34,1.16-.88,2.3-.68,3.56ZM430.07,151.25c.75-.59,1.24-1.3,1.28-2.09.06-1.17.38-2.34.71-3.4.75-2.42.41-5.01,1.53-7.35.04-.09.05-.21.04-.32-.05-.31-.04-.67-.53-.71-.34-.03-.57.12-.67.41-.16.52-.35,1.03-.45,1.56-.43,2.28-.86,4.57-1.23,6.86-.27,1.67-.46,3.35-.68,5.03ZM435.97,209.65c.69-1.46.15-9.92-.81-12.58-.22.95.47,11.73.81,12.58ZM435.63,172.67c-.44,1.07-.3,2.17-.23,3.25.07,1.14-1.13,2.23-.14,3.39.16.19.04.34-.06.55-.66,1.47-.36,2.98-.16,4.48.02.11.2.1.18.01.83-3.88,1.2-7.77.4-11.68ZM435.55,159.93c-.73,2.4-.78,5.09-.16,6.48,1.11-.86,1.08-3.07-.11-4.56.46-.5.5-1.11.27-1.92ZM435.51,190.85c.82-1.43.79-1.65-.4-2.84,1.05.86-1.23,1.91.4,2.84ZM438.03,142.53c-.32,1.03-.08,2.04.14,3.06.11-1.02.39-2.05-.14-3.06ZM442.55,121.43q-1.15.87-.38,1.69c.56-.68-.42-1.37-.17-1.72.41-.58.6-1.06.43-1.69-.01-.05-.18-.06-.28-.09-.56.67-.44,1.26.4,1.81ZM440.79,155.39c.22-.93-.02-1.62-.58-2.56-.33,1.11-.29,1.83.58,2.56ZM436.38,147.57q-1.11.87-.29,1.65c.67-.81-.32-1.12-.63-1.54.26-.43.52-.3.92-.11ZM440.25,157.47c-.63.65-.36,1.23-.04,1.9.48-.68.34-1.26.04-1.9ZM435.53,167.52c-.16.48-.3.97.13,1.41.31-.52.16-.97-.13-1.41ZM435.93,150.15c-.44.31-.51.61-.15,1.02.42-.31.3-.64.15-1.02Z"/>
  <path class="cls-1" d="M1.68,101.09c.35.2.15.53.38.77.8.01,1.2-.56,1.66-1.03,3.97-4.07,8.78-6.89,14.48-8.66,6.08-1.89,12.29-3.23,18.61-4.05,4.64-.6,9.34-.5,14.01.04,2.77.32,5.48.87,8.13,1.65,2.66.78,5.16,1.88,7.58,3.12,1.24.63,2.58,1.05,3.82,1.68,3.59,1.82,6.22,4.43,8.17,7.65,2.45,4.03,3.51,8.36,2.72,12.93-.49,2.82-1.48,5.54-2.85,8.13-2.32,4.37-5.26,8.4-8.32,12.37-1.36,1.76-2.67,3.56-4.04,5.3-2.09,2.65-4.52,5.08-7.3,7.17-.96.72-2.02,1.34-2.88,2.14-1.18,1.1-2.55,2.03-3.31,3.54-.76,1.52-2.23,2.63-3.68,3.65-2.58,1.8-5.43,3.21-8.28,4.63-1.8.89-3.78,1.58-5.39,2.68-2.78,1.9-5.93,2.95-9.11,3.98-.85.27-1.05.68-1.13,1.39-.46,4.58-.3,9.16-.15,13.74.14,4.31.06,8.63.13,12.95.04,2.17-.07,4.3-.62,6.42-.5,1.89-1.77,2.97-3.74,3.49-.62.17-1.26.28-1.78.69-.21.17-.53.27-.81.3-1.47.18-4.82-1.51-5.5-2.76-.34-.62-.67-1.25-1.01-1.88-.54.04-.16.78-.76.69-.45-.07-.53-.37-.6-.7-.27-1.22-.47-2.45-.3-3.7.25-1.78.13-3.54,0-5.32-.12-1.61-.03-3.23.04-4.86.59,2.03.35,4.18,1.02,6.31.44-.52.28-1.03.28-1.49.04-5.56-.2-11.11-.57-16.66-.11-1.57.08-3.12.18-4.68.13-2-.44-3.71-2.07-5.09-.23-.19-.46-.36-.47-.64-.02-.62-.29-1.11-.79-1.53-.27-.23.06-.49.16-.81-1.21-.53-1.98-1.5-2.81-2.41.5-.7.93-.36,1.38-.09q1.48.88,3.07.14c-.67-.84-.5-1.63.22-2.41.56.64.01,1.37.28,2.01.44.27.8.23.9-.28.09-.48.09-.97.11-1.45.17-3.77.33-7.55.5-11.32.09-1.99.22-3.99.32-5.98.02-.37,0-.73-.31-1.13-.35,1.55-.7,3.1-1.06,4.65-.07,0-.13,0-.2-.01.14-4.62.25-9.24.44-13.86.22-5.23.6-10.45.52-15.69-.01-.9.04-1.82-.53-2.7-.78.41-1.42.95-2.35,1.07-1.43.19-2.58-.06-3.82-.8-2.03-1.2-2.86-2.88-3.18-4.93-.25-1.55-.58-3.08-.93-4.61-.35-1.52-.23-2.85,1.52-3.77ZM56.02,141.78c.06.1.03.18-.09.15-.12-.02-.11-.1,0-.15.03.03.06.05.09.08-.12,0-.12-.02,0-.09ZM49.28,150.67c-.12-.19,0-.28.17-.33.03,0,.12.05.13.08.03.17-.01.3-.26.28-.11.17-.23.34-.34.52-1.42.29-2.02.86-2.07,1.96-.57-.47-.82-.13-1.14.29.59.25.72-.4,1.15-.3.54-.79,1.23-1.44,2.09-1.96-.05-.24.08-.41.29-.53ZM50.47,149.17c.75,0,1.21-.25,1.04-1.03.3.36.71.17,1.08.18,1.09-1.45,2.7-2.46,3.92-3.78-.13.08-.17.06-.1-.05.03.04.06.07.08.11-1.76.6-2.79,2-4.04,3.14-.18.16.06.39.13.59-.29-.4-.72-.14-1.08-.18-.14.52-.43.91-1.03,1.06.01.04.05.1.04.13-.1.14-.07.17.04.08.03-.02-.05-.16-.08-.24ZM44.01,153.06c1.13-.75,2.34-1.35,3.29-2.34,1.66-1.73,3.5-3.32,5.22-5.01,1-.99,2.14-1.87,2.92-3.04-.22,0-.38.05-.5.15-3.45,3.06-6.77,6.24-10.32,9.2-.34.28-.74.54-.6,1.06-.26-.07-.53-.25-.73.07-.04.06.02.24.08.26.39.17.38-.29.64-.35ZM26.33,158.07c7.16-3.93,13.59-8.39,19.34-13.69,5.72-5.27,10.76-11.01,15.08-17.28-1.29.91-2.06,2.2-3.03,3.34-.56.65-1.04,1.3-2.07,1.29-.39,0-.66.21-.81.54-.25.52-.82.76-1.2,1.16-.73.76-1.96,1.09-2.2,2.26-.07-.54,0-1,.36-1.4.68-.74,1.29-1.54,2.01-2.25,1.97-1.95,3.66-4.07,5.11-6.37,1.32-2.1,2.58-4.23,3.97-6.29,3.29-4.87,5.38-10.03,5.21-15.85-.05-1.81-.78-3.24-2.18-4.42-.95-.8-2.03-1.46-3.21-1.98-3.39-1.51-6.98-1.93-10.7-1.74-3.14.16-6.22.52-9.3,1.15-4.62.95-9.21,1.96-13.68,3.37-1.66.52-3.33,1.12-4.73,2.16-1.01.75-1.05,1.44-.1,2.27.43.38.8.76,1.05,1.27,1.38,2.78,2.24,5.72,2.5,8.72.48,5.54.47,11.13-.08,16.66-.78,7.79-.9,15.62-1.91,23.39-.15,1.17-.05,2.35.59,3.7ZM22.61,197.33c.31-1.74-.36-25.31-.76-26.64-.52,3.64.1,25.18.76,26.64ZM23.78,92.55c2.45-.43,4.85-.96,6.94-2.25-2.46.38-4.88.88-6.94,2.25ZM34.43,159.77c2.15-.7,5.72-3.08,6.37-4.19-1.09.19-1.96.62-2.57,1.35-.53.63-1.31,1.19-1.96,1.27-1.11.15-1.07.89-1.84,1.56ZM36.93,89.17c-1.3-.12-3.25.3-4.77.93,1.78.15,3.3-.25,4.77-.93ZM41.51,88.61c-.79.06-1.74-.47-2.54.34.94.2,1.72-.09,2.54-.34ZM31.33,161.17q1.08-.25.96-.95c-.48.18-.89.41-.96.95Z"/>
  <path class="cls-1" d="M244.94,163.9c.58.57-.41.89-.22,1.5.58.38,1.42-.02,2.17.31.32.73-.42,1.57.17,2.34,1-.33,1.91-1.17,3.07-.47,1.43,3.94-.39,7.37-2.16,10.75-1.88,3.59-4.53,6.78-6.84,10.15-.65.95-1.45,1.84-2.3,2.66-.79.76-1.58,1.48-2.86,1.78-1.22.29-2.16,1.27-2.96,2.21-.7.82-1.62,1.28-2.67,1.49-2.71.55-5.41,1.12-8.17,1.52-3.69.53-7.35.4-10.97-.22-3.2-.55-6.25-1.6-9.06-3.13-2.67-1.46-5.52-2.66-7.95-4.48-2.86-2.14-4.47-4.95-5.16-8.22-.22-1.06-.4-2.13-.7-3.17-.95-3.26-.68-6.51-.21-9.8.66-4.6,1.41-9.19,2.39-13.73.65-3.01,1.72-5.94,3.03-8.77.76-1.64,1.14-3.2.59-5.01-.66-2.19,0-3.21,2.32-4.24.78-.34,1.3-.8,1.68-1.54,2-3.85,4.31-7.56,7.39-10.78,1.88-1.97,3.72-4.03,6.47-5.18,2.42-1.01,4.98-1.46,7.57-1.57,6.05-.26,11.9.69,17.48,2.9,3.21,1.27,6.31,2.69,8.83,4.97,2.97,2.69,4.38,5.86,3.35,9.68-1.79,6.67-5.5,12.29-11.37,16.66-2.09,1.55-4.63,2.36-7.01,3.42-.61.27-1.28.19-1.93.14-3.78-.28-7.56-.55-11.35-.6-1.45-.02-2.79-.28-4.08-.93-1.39-.69-2.9-1.18-4.59-1.29-1.58,2.64-2.57,5.43-3.12,8.36-.39,2.07-.8,4.14-1.08,6.23-.38,2.78-.66,5.57-.95,8.36-.16,1.59.44,3.1.76,4.62.47,2.21,1.25,4.36,2.45,6.38,1.71,2.88,4.36,3.65,7.48,2.44,3.25-1.26,6.43-2.75,9.02-5.04,1.83-1.61,3.39-3.44,5.02-5.2,1.29-1.4,2.52-2.84,3.8-4.24.18-.2.47-.3.76-.49.37,1.1-.84,1.77-.74,2.76.66.07.97-.33,1.35-.65,2.33-1.96,4.02-4.35,5.58-6.82,1.36-2.16,2.91-4.18,5.1-5.73.18-.13.41-.2.61-.3l-.02-.05ZM232.56,130.77c-.02-1.65-.56-3.07-1.6-4.28-.73-.86-1.71-1.24-2.98-.88-.93.27-1.74.66-2.48,1.2-2.78,2.04-4.92,4.6-7.06,7.17-2.44,2.93-4.43,6.1-6.18,9.4-.35.67-.6,1.38.17,1.91,1.13.78,2.08,1.76,3.4,2.31.91.37,1.81.57,2.74.16,1.7-.76,3.31-1.66,4.75-2.79,3.08-2.42,5.42-5.38,7.4-8.58,1.09-1.75,1.7-3.67,1.83-5.61ZM197.91,160.58c-.5.09-.78.28-.85.52-.47,1.56-1.06,3.18-.88,4.75.12,1.02-.04,1.84-.36,2.73-.69,1.91-.73,3.86-.55,5.87.25-.06.39-.06.45-.12.11-.12.22-.27.26-.42.66-2.62,1.63-5.2,1.3-7.95-.06-.49.02-.92.21-1.4.49-1.26.93-2.55.42-3.97ZM199.17,155.29l-.45-.06c-.18.77-.52,1.54-.49,2.31.02.79-1.1,1.39-.3,2.53.36-1.8,1.7-3.11,1.24-4.78Z"/>
  <path class="cls-1" d="M264.03,145.66c-.51-.42-.34-.81-.32-1.17.38-8.19,1.11-16.37,1.71-24.55.34-4.74.84-9.46,1.19-14.2.52-6.83,1.25-13.65,1.65-20.49.3-5.11,1-10.22.37-15.35-.02-.16-.04-.33,0-.48.6-2.63-.1-5.13-.92-7.62-.03-.09.03-.21.07-.42,1.3-.48,2.68-.7,4.04-.11.88.38,1.66.37,2.56.07,1.49-.49,3-.61,4.47.16.45.23,1.01.3,1.52.42,3.66.88,5,3.36,5.22,5.99.04.48.05.98,0,1.46-.48,4.3-.22,8.63-.44,12.94-.22,4.26-.62,8.5-1.1,12.74-.35,3.11-.53,6.24-.95,9.34-.79,5.83-1.17,11.71-2.02,17.54-.36,2.46-.43,4.95-.7,7.41-.76,6.82-1.33,13.64-1.58,20.5-.31,8.36-.2,16.72.32,25.07.27,4.36.91,8.69,1.61,13.01.47,2.94,1.49,5.77,1.72,8.74.05.68.23,1.4,1.01,1.8.69-.25,1.09-.82,1.67-1.18.42-.27.85-.7,1.42-.32.51.34.2.76.06,1.17-.07.19-.01.42-.01.67,1.72.64,3.38-.62,5.12-.06.1.62.2,1.28.67,1.77.72.75.7,1.6.4,2.44-.66,1.83-1.47,3.52-3.99,3.83-1.09.13-1.98.88-3.13,1.07-1.5.25-2.9.27-4.35-.19-4.48-1.42-8.38-3.52-10.73-7.44-1.53-2.55-2.67-5.26-3.51-8.07-.45-1.5-.83-3.01-1.28-4.68.75.64.86,1.41,1.1,2.07.88,2.4,1.66,4.83,2.47,7.25.32.97.86,1.8,1.64,2.55.53-.49.24-.89.08-1.27-1.44-3.38-2.35-6.88-3.04-10.44-1.93-9.96-2.81-19.99-2.51-30.12.16-5.39.02-10.79.45-16.18.22-2.8.5-5.59.82-8.38.28-2.48.22-4.96.16-7.44-.01-.53-.05-1.08-.46-1.65-.72.82-.77,1.77-.84,2.7-.51,6.24-1,12.48-1.51,18.72,0,.11-.06.21-.11.38ZM278.85,111.51c-.7,1.36-.66,2.83-.91,4.26-.87,4.91-1.19,9.86-1.65,14.81-.63,6.83-.7,13.68-1,20.53-.2,4.42.06,8.85-.61,13.25-.11.74-.1,1.51-.05,2.26.43,7.16,1.16,14.3,2.4,21.39.08.43.16.82.66.99.53-.45.38-.97.29-1.41-.57-2.87-.79-5.77-1.12-8.67-.85-7.49-.84-14.99-.57-22.48.23-6.36.81-12.71,1.23-19.06.24-3.72.42-7.44.73-11.15.4-4.9.73-9.8.6-14.72ZM279.28,106.38c-.16.74-.65,1.47-.03,2.37.31-.91.33-1.64.03-2.37Z"/>
  <path class="cls-1" d="M147.34,171.87c-.57.11-.85.53-1.17.91-3.2,3.73-6.34,7.5-9.6,11.18-2.22,2.51-4.37,5.08-6.55,7.62-3.41,3.97-5.18,3.57-9.22,2.2-.83-.28-1.62-.66-2.39-1.05-.4-.2-.79-.43-.95-.91-.42-1.29-1.06-2.51-1.63-3.75-.61-1.33-.34-1.82.96-2.71,1.71-1.17,3.03-2.7,4.36-4.21,2.39-2.73,4.74-5.49,7.11-8.24.82-.94,1.68-1.85,2.84-2.69-.34,1.5-1.48,2.33-2.33,3.32-.91,1.06-2.04,1.96-2.48,3.3-.1.31-.42.5-.71.7-.96.66-1.22,1.51-.89,2.53.76.27,1.23-.12,1.56-.54,3.28-4.14,6.91-8.03,10.15-12.2,1.43-1.84,3-3.59,4.48-5.4,1.11-1.36,1.09-1.74-.12-3.35-.7.8-1.39,1.57-2.25,2.55.06-.88.33-1.35.84-1.75,1.05-.81,1.18-1.81.74-2.93-.24-.61-.48-1.22-.78-1.8-1.59-3.18-3-6.42-4.45-9.65-2.67-5.98-5.57-11.87-9.97-17.01-.58-.67-1.31-1.23-1.92-1.89-.74-.81-.67-.98.26-1.76.38-.32.68-.73,1.04-1.13.24.01.52-.05.69.05,1.02.56,1.85.31,2.74-.31,2.07-1.42,4.56-1.33,6.99-1.43,1.78,1.19,4.18,1.49,5.58,3.21,1.44,1.78,2.65,3.69,3.8,5.63,1.37,2.31,2.73,4.63,3.97,7,1.3,2.47,2.46,5,3.68,7.51.26.54.54,1.07,1.14,1.6,5.61-6.79,11.05-13.64,17.06-20.07-.47-.66-.94-.62-1.46-.38-1.02.48-1.8,1.22-2.57,1.97-.71.69-1.41,1.38-2.3,1.89,1.23-1.72,2.86-3.11,4.35-4.61.4-.4.87-.48,1.45-.38,1.13.19,2.17.06,3.19-.54.9-.53,1.98-.69,3.08-.6,1.47.12,2.17.66,2.52,1.96,1.84-.43,2.99-.09,5.16,1.55-1.03,1.76-2.7,3.07-4.09,4.58-3.45,3.75-6.96,7.45-10.22,11.34-3.62,4.32-7.05,8.76-10.02,13.48-.29.47-.56.95-.89,1.39-.38.51-.35.99-.1,1.52,2.23,4.81,4.32,9.66,7.16,14.22.55.89.78,1.91,1.3,2.82,1.37,2.4,3.16,4.54,4.86,6.73,1.02,1.32,2.02,2.65,2.88,4.07.41.67.55,1.34.12,1.99-.61.89-.42,2.16-1.59,2.78-.3.16-.56.52-.86.53-2.44.13-4.86.62-7.19-.77-3.07-1.84-5.46-4.25-7.68-6.83-3.36-3.9-6.28-8.07-8.9-12.42-.14-.23-.29-.46-.47-.68-.06-.08-.2-.1-.32-.15Z"/>
  <path class="cls-1" d="M339.24,123.91c.49.13.39.61.62.9.33.43.7.71,1.32.62,1.13-.17,2.06.24,2.94.86,1.86,1.3,4.08,1.92,6.27,2.54,1.86.53,3.75.97,5.62,1.47,2.39.64,4.58,1.72,6.75,2.81,3.72,1.87,7.33,3.91,10.46,6.56,1.12.95,2.15,1.98,3.16,3.03,1.37,1.42,1.84,3.16,1.97,4.93.41,5.45.21,10.85-1.14,16.24-1.41,5.63-3.78,10.86-7.02,15.77-2.2,3.33-4.81,6.38-8.62,8.41-4.75,2.52-9.65,2.95-14.81,1.23-4.08-1.36-7.56-3.47-10.39-6.49-1.35-1.44-2.53-2.99-3.44-4.68-2.35-4.39-3.85-9.06-4.57-13.87-.81-5.39-1.12-10.84-.81-16.3.26-4.64.64-9.26,2.12-13.74.85-2.59,2-5.06,4.28-6.93.85-.7,1.83-1.27,2.96-1.39,1.26-.14,1.96-.63,2.05-1.8,0-.06.17-.11.27-.17ZM363.11,146.16c-1.64-.73-1.95-2.27-3.02-3.23-1.12-1-2.35-1.92-2.27-3.57q-1.49.63-2.26-1.01c-1.38.41-2.53-.09-3.56-.89-1.03-.79-2.25-1.24-3.51-1.49-2.52-.51-2.25-.57-3.5,1.55-.05.09-.06.21-.1.31-.73,1.7-1.42,3.42-2.21,5.1-.57,1.21-.86,2.45-.93,3.76-.43,8.92.14,17.79,1.89,26.58.41,2.04.95,4.11,2.28,5.9,1.21,1.62,2.78,1.61,4.01-.06.09-.12.25-.2.39-.3.88-.02,1.37,1.18,2.38.63,0-.57-.83-.39-.93-.97.15-.33.4-.66.86-.86.42-.19.78-.47,1.12-.77,3.24-2.85,5.11-6.42,6.48-10.24.73-2.04,1.27-4.14,1.73-6.25.9-4.15,1.48-8.3.83-12.53-.09-.55-.01-1.06.32-1.63ZM363.25,143.49c-.17.49-.02.78.07,1.09.8,2.83,1.36,5.69,1.08,8.63-.42,4.41-1.33,8.74-2.94,12.93-1.21,3.15-2.32,6.33-4.44,9.11-.2.27-.52.63-.07,1.02.64-.04,1.1-.29,1.26-.9.21-.8.72-1.45,1.16-2.15,1.39-2.19,2.77-4.41,3.49-6.86,1.36-4.57,2.4-9.22,3-13.92.31-2.4.34-4.85-.84-7.15-.38-.74-.77-1.43-1.77-1.81Z"/>
  <path class="cls-1" d="M459.12,201.74c.74-.83.42-1.89.62-2.96-.93-.32-1.85-.65-2.79-.97.92-1.03,1.57-1.12,3.2-.46.34.85.61,1.7.14,2.49.58.7,1.02.21,1.5.01,1.09,1.34,2.79,1.47,4.37,1.68,4.55.59,8.96-.09,13.28-1.42,2.86-.88,5.66-1.89,8.18-3.43,4.79-2.93,8.1-6.88,9.65-11.95.68-2.21.64-4.49.2-6.75-.2-1.02-.8-1.72-1.9-2.15-2.24-.89-4.63-1.31-6.92-2.05-6.92-2.24-13.27-5.29-18.7-9.89-2.11-1.79-4.18-3.64-6.35-5.38-.88-.7-1.24-1.62-1.62-2.61-1.06-2.73-.45-5.28.57-7.87,1.7-4.34,4.12-8.32,6.87-12.16,2.71-3.78,5.46-7.54,8.14-11.34.75-1.06,2.01-1.65,2.7-2.75,1.17-1.88,3.21-2.75,5.22-3.66.7-.31,1.32-.66,1.7-1.34.42-.74,1.13-.85,1.97-.54,3.83,1.41,7.86,2.34,11.51,4.15,2.34,1.16,4.21,2.75,5.46,4.91.43.74.52,1.55.66,2.34.42,2.3.54,4.6-.16,6.9-.16.54-.41.98-.79,1.41-.98,1.13-1.74,1.39-3.22,1.04-1.6-.39-2.96-1.36-4.63-1.59-.11-.01-.26-.08-.29-.16-.63-1.65-2.55-2.71-2.54-4.66,0-.7-.24-1.37-.72-2.09-1.98,1.05-3.58,2.46-5.11,3.92-2.62,2.51-4.63,5.43-6.63,8.35-2.12,3.11-3.96,6.36-5.93,9.55-.73,1.18-1.2,2.47-1.58,3.76-.98,3.3.38,5.85,3.14,8,2.95,2.3,6.56,3.38,10.03,4.72,4.89,1.89,10.02,3.27,14.72,5.54,2.95,1.42,5.59,3.22,7.01,6.14,1.92,3.93,2.55,7.97,1.08,12.11-1.44,4.07-4.05,7.52-7.58,10.33-4.01,3.19-8.61,5.45-13.68,6.91-5.69,1.64-11.48,2.03-17.37,1.21-3.44-.48-6.43-1.78-8.84-4.1-1.03-.99-2.42-1.54-3.58-2.38-.32-.23-.71-.39-1.01-.8Z"/>
  <path class="cls-1" d="M89.78,159.91c0-4.65-.15-8.16.03-12.09.32-6.9.85-13.92,1.25-20.81.07-1.16.38-2.42-.52-3.5-.35-.42.05-.95.63-.83,1.53.32,2.94-.59,4.53-.2.82.2,1.9-.45,2.84-.78.83-.29,1.59-.18,2.12.37.71.74,1.58.87,2.55.91.89.04,1.62.28,1.88,1.18.07.25.21.53.41.71,1.8,1.62,1.91,3.64,1.62,5.72-1.1,7.71-1.29,15.48-1.82,23.23-.49,7.06-.22,14.13-.35,21.19-.04,2.27.35,4.52.62,6.77.2,1.67.24,3.34.15,5.01-.09,1.84-.74,2.51-2.71,3.06-.17.05-.33.12-.5.17-.92.32-1.72.73-2.86.49-1.74-.37-3.25-.92-4.42-2.17-1.69-1.81-2.55-3.96-3.31-6.19-1.56-4.6-1.72-9.05-1.83-13.8-.07-2.91-.01-6.13-.01-8.45h-.3Z"/>
  <path class="cls-1" d="M298.65,123.19c.25-.26.4-.5.48-.48,1.46.29,2.83-.69,4.29-.22.54.17,1.05,0,1.55-.17.67-.22,1.36-.38,2.01-.63.82-.31,1.63-.17,2.13.36.71.75,1.56.89,2.53.92.92.03,1.57.4,1.93,1.18.59,1.27,1.95,2.2,1.95,3.73,0,.59.16,1.19.09,1.77-1.23,9.92-1.71,19.88-2.08,29.85-.2,5.18-.19,10.35-.14,15.53.03,2.85.42,5.7.65,8.55.1,1.29.11,2.59-.04,3.88-.15,1.26-.76,2.14-2.24,2.34-.12.02-.25.01-.35.07-1.77,1.07-3.6.78-5.39.12-1.91-.71-3.09-2.17-3.95-3.76-1.72-3.16-2.61-6.56-3.06-10.06-.74-5.75-.47-11.53-.66-17.29-.21-6.15-.16-12.3.32-18.44.39-4.89.32-9.81.96-14.69.12-.96-.16-1.8-.98-2.55Z"/>
  <path class="cls-1" d="M309.9,111.08c-.38-.25-.71-.47-1.04-.68-.65-.1-1.03.51-1.61.53-.59-.07-.89-.52-1.38-.8-.13.03-.32.02-.45.1-.52.33-1.11.36-1.7.4-1.73.12-2.45-.48-2.64-2.06-.3-2.51-.79-5-.74-7.55.07-3.43.32-3.74,4.31-4.44,1.62-.29,3.26-.5,4.89-.75,1.02-.16,2.01-.07,2.94.35.77.35,1.56.4,2.4.4,1.7-.02,2.51.6,2.73,2.15.28,1.94-.14,3.74-1.53,5.29-.64.71-1.17,1.49-1.55,2.34-1.33,2.98-1.35,3.02-4.63,4.72Z"/>
  <path class="cls-1" d="M242.3,162.22c-1.43,1.21-1.96,2.87-3.3,4.07-.3-.45-.05-.72.09-1,.27-.53.96-.92.31-1.68-.28-.33.32-.75.62-1.05.44-.43,1.13-.53,2.28-.35Z"/>
  <path class="cls-1" d="M9.53,181.34c.48,2.02-.3,3.91.56,5.67-.89-1.13-1.13-3.84-.56-5.67Z"/>
  <path class="cls-1" d="M265.42,185.44c-.25-1.54-1-3.04-.85-4.78.93,1.14,1.18,2.45.85,4.78Z"/>
  <path class="cls-1" d="M263.98,148.31c.31,2.88.23,3.22-.97,4.22-.06.2.11.33.25.37.22.06.48.05.55-.26-.94-1.28-.59-2.3.17-4.33Z"/>
  <path class="cls-1" d="M158.1,136.08c.16-.49.52-.86,1.05-1.39.04.8-.68,1-.78,1.49,0,.02-.1.05-.14.04-.04-.01-.07-.07-.12-.13Z"/>
  <path class="cls-1" d="M10.03,148.72c.5.14.19.49.54.96q-.7-.48-.54-.96Z"/>
  <path class="cls-1" d="M244.96,163.95c.05-.15.14-.24.32-.14.02.01.02.11,0,.14-.13.13-.25.12-.33-.05l.02.05Z"/>
</svg>